solid Created by Gmsh
facet normal -0.980845 -0.194792 0
  outer loop
    vertex 0.35 0 0
    vertex 0.35 0 0.1
    vertex 0.3367 0.06697 0.05
  endloop
endfacet
facet normal -0.980845 -0.194792 0
  outer loop
    vertex 0.3234 0.13394 0
    vertex 0.3367 0.06697 0.05
    vertex 0.3234 0.13394 0.1
  endloop
endfacet
facet normal -0.980845 -0.194792 2.35013e-15
  outer loop
    vertex 0.35 0 0
    vertex 0.3367 0.06697 0.05
    vertex 0.3234 0.13394 0
  endloop
endfacet
facet normal -0.980845 -0.194792 -2.35013e-15
  outer loop
    vertex 0.35 0 0.1
    vertex 0.3234 0.13394 0.1
    vertex 0.3367 0.06697 0.05
  endloop
endfacet
facet normal -0.828561 -0.559898 0
  outer loop
    vertex 0.247 0.247 0
    vertex 0.2852 0.19047 0.05
    vertex 0.247 0.247 0.1
  endloop
endfacet
facet normal -0.828561 -0.559898 0
  outer loop
    vertex 0.3234 0.13394 0
    vertex 0.3234 0.13394 0.1
    vertex 0.2852 0.19047 0.05
  endloop
endfacet
facet normal -0.828561 -0.559898 -6.35647e-16
  outer loop
    vertex 0.3234 0.13394 0
    vertex 0.2852 0.19047 0.05
    vertex 0.247 0.247 0
  endloop
endfacet
facet normal -0.828561 -0.559898 6.35647e-16
  outer loop
    vertex 0.3234 0.13394 0.1
    vertex 0.247 0.247 0.1
    vertex 0.2852 0.19047 0.05
  endloop
endfacet
facet normal -0.559898 -0.828561 0
  outer loop
    vertex 0.247 0.247 0
    vertex 0.247 0.247 0.1
    vertex 0.19047 0.2852 0.05
  endloop
endfacet
facet normal -0.559898 -0.828561 0
  outer loop
    vertex 0.13394 0.3234 0
    vertex 0.19047 0.2852 0.05
    vertex 0.13394 0.3234 0.1
  endloop
endfacet
facet normal -0.559898 -0.828561 -1.14416e-15
  outer loop
    vertex 0.247 0.247 0
    vertex 0.19047 0.2852 0.05
    vertex 0.13394 0.3234 0
  endloop
endfacet
facet normal -0.559898 -0.828561 1.14416e-15
  outer loop
    vertex 0.247 0.247 0.1
    vertex 0.13394 0.3234 0.1
    vertex 0.19047 0.2852 0.05
  endloop
endfacet
facet normal -0.194792 -0.980845 0
  outer loop
    vertex 0 0.35 0
    vertex 0.06697 0.3367 0.05
    vertex 0 0.35 0.1
  endloop
endfacet
facet normal -0.194792 -0.980845 0
  outer loop
    vertex 0.13394 0.3234 0
    vertex 0.13394 0.3234 0.1
    vertex 0.06697 0.3367 0.05
  endloop
endfacet
facet normal -0.194792 -0.980845 9.52755e-17
  outer loop
    vertex 0 0.35 0
    vertex 0.13394 0.3234 0
    vertex 0.06697 0.3367 0.05
  endloop
endfacet
facet normal -0.194792 -0.980845 -9.52755e-17
  outer loop
    vertex 0 0.35 0.1
    vertex 0.06697 0.3367 0.05
    vertex 0.13394 0.3234 0.1
  endloop
endfacet
facet normal 0.194792 -0.980845 0
  outer loop
    vertex 0 0.35 0
    vertex 0 0.35 0.1
    vertex -0.06697 0.3367 0.05
  endloop
endfacet
facet normal 0.194792 -0.980845 0
  outer loop
    vertex -0.13394 0.3234 0.1
    vertex -0.13394 0.3234 0
    vertex -0.06697 0.3367 0.05
  endloop
endfacet
facet normal 0.194792 -0.980845 2.35013e-15
  outer loop
    vertex 0 0.35 0
    vertex -0.06697 0.3367 0.05
    vertex -0.13394 0.3234 0
  endloop
endfacet
facet normal 0.194792 -0.980845 -2.35013e-15
  outer loop
    vertex 0 0.35 0.1
    vertex -0.13394 0.3234 0.1
    vertex -0.06697 0.3367 0.05
  endloop
endfacet
facet normal 0.559898 -0.828561 0
  outer loop
    vertex -0.247 0.247 0.1
    vertex -0.247 0.247 0
    vertex -0.19047 0.2852 0.05
  endloop
endfacet
facet normal 0.559898 -0.828561 0
  outer loop
    vertex -0.13394 0.3234 0.1
    vertex -0.19047 0.2852 0.05
    vertex -0.13394 0.3234 0
  endloop
endfacet
facet normal 0.559898 -0.828561 2.54259e-16
  outer loop
    vertex -0.247 0.247 0.1
    vertex -0.19047 0.2852 0.05
    vertex -0.13394 0.3234 0.1
  endloop
endfacet
facet normal 0.559898 -0.828561 -2.54259e-16
  outer loop
    vertex -0.247 0.247 0
    vertex -0.13394 0.3234 0
    vertex -0.19047 0.2852 0.05
  endloop
endfacet
facet normal 0.828561 -0.559898 0
  outer loop
    vertex -0.247 0.247 0.1
    vertex -0.2852 0.19047 0.05
    vertex -0.247 0.247 0
  endloop
endfacet
facet normal 0.828561 -0.559898 0
  outer loop
    vertex -0.3234 0.13394 0.1
    vertex -0.3234 0.13394 0
    vertex -0.2852 0.19047 0.05
  endloop
endfacet
facet normal 0.828561 -0.559898 1.27129e-15
  outer loop
    vertex -0.3234 0.13394 0.1
    vertex -0.2852 0.19047 0.05
    vertex -0.247 0.247 0.1
  endloop
endfacet
facet normal 0.828561 -0.559898 -1.27129e-15
  outer loop
    vertex -0.3234 0.13394 0
    vertex -0.247 0.247 0
    vertex -0.2852 0.19047 0.05
  endloop
endfacet
facet normal 0.980845 -0.194792 0
  outer loop
    vertex -0.35 0 0
    vertex -0.3367 0.06697 0.05
    vertex -0.35 0 0.1
  endloop
endfacet
facet normal 0.980845 -0.194792 0
  outer loop
    vertex -0.3234 0.13394 0.1
    vertex -0.3367 0.06697 0.05
    vertex -0.3234 0.13394 0
  endloop
endfacet
facet normal 0.980845 -0.194792 9.52755e-17
  outer loop
    vertex -0.35 0 0
    vertex -0.3234 0.13394 0
    vertex -0.3367 0.06697 0.05
  endloop
endfacet
facet normal 0.980845 -0.194792 -9.52755e-17
  outer loop
    vertex -0.35 0 0.1
    vertex -0.3367 0.06697 0.05
    vertex -0.3234 0.13394 0.1
  endloop
endfacet
facet normal 0 0 -1
  outer loop
    vertex 0 0.35 0
    vertex 0.13394 0.3234 0
    vertex -0.0421613 0.251437 -0
  endloop
endfacet
facet normal 0 0 -1
  outer loop
    vertex -0.215898 0.134886 -0
    vertex -0.35 0 0
    vertex -0.3234 0.13394 0
  endloop
endfacet
facet normal -0 0 -1
  outer loop
    vertex -0.16138 0.0617568 -0
    vertex -0.35 0 0
    vertex -0.215898 0.134886 -0
  endloop
endfacet
facet normal 0 0 -1
  outer loop
    vertex -0.0421613 0.251437 -0
    vertex 0.13394 0.3234 0
    vertex 0.0353249 0.177356 0
  endloop
endfacet
facet normal 0 -0 -1
  outer loop
    vertex 0.13394 0.3234 0
    vertex 0.179608 0.154211 0
    vertex 0.0353249 0.177356 0
  endloop
endfacet
facet normal -0 0 -1
  outer loop
    vertex 0.247 0.247 0
    vertex 0.179608 0.154211 0
    vertex 0.13394 0.3234 0
  endloop
endfacet
facet normal 0 0 -1
  outer loop
    vertex 0.3234 0.13394 0
    vertex 0.179608 0.154211 0
    vertex 0.247 0.247 0
  endloop
endfacet
facet normal 0 0 -1
  outer loop
    vertex -0.247 0.247 0
    vertex -0.13394 0.3234 0
    vertex -0.11502 0.180569 -0
  endloop
endfacet
facet normal -0 0 -1
  outer loop
    vertex 0.3234 0.13394 0
    vertex 0.255995 0.0884397 0
    vertex 0.179608 0.154211 0
  endloop
endfacet
facet normal 0 0 -1
  outer loop
    vertex 0.0353249 0.177356 0
    vertex 0.0612566 0.101863 0
    vertex -0.069769 0.103983 -0
  endloop
endfacet
facet normal 0 0 -1
  outer loop
    vertex 0.0353249 0.177356 0
    vertex -0.069769 0.103983 -0
    vertex -0.11502 0.180569 -0
  endloop
endfacet
facet normal 0 0 -1
  outer loop
    vertex -0.000536643 0.0372213 -0
    vertex -0.069769 0.103983 -0
    vertex 0.0612566 0.101863 0
  endloop
endfacet
facet normal 0 0 -1
  outer loop
    vertex 0.170972 0.0656083 0
    vertex 0.179608 0.154211 0
    vertex 0.255995 0.0884397 0
  endloop
endfacet
facet normal 0 0 -1
  outer loop
    vertex -0.13394 0.3234 0
    vertex -0.0421613 0.251437 -0
    vertex -0.11502 0.180569 -0
  endloop
endfacet
facet normal 0 0 -1
  outer loop
    vertex -0.247 0.247 0
    vertex -0.11502 0.180569 -0
    vertex -0.215898 0.134886 -0
  endloop
endfacet
facet normal 0 0 -1
  outer loop
    vertex 0.0353249 0.177356 0
    vertex -0.11502 0.180569 -0
    vertex -0.0421613 0.251437 -0
  endloop
endfacet
facet normal 0 -0 -1
  outer loop
    vertex -0.11502 0.180569 -0
    vertex -0.069769 0.103983 -0
    vertex -0.215898 0.134886 -0
  endloop
endfacet
facet normal 0 0 -1
  outer loop
    vertex -0.16138 0.0617568 -0
    vertex -0.215898 0.134886 -0
    vertex -0.069769 0.103983 -0
  endloop
endfacet
facet normal -0 0 -1
  outer loop
    vertex 0 0.35 0
    vertex -0.0421613 0.251437 -0
    vertex -0.13394 0.3234 0
  endloop
endfacet
facet normal -0 0 -1
  outer loop
    vertex -0.3234 0.13394 0
    vertex -0.247 0.247 0
    vertex -0.215898 0.134886 -0
  endloop
endfacet
facet normal 0 0 -1
  outer loop
    vertex 0.35 0 0
    vertex 0.255995 0.0884397 0
    vertex 0.3234 0.13394 0
  endloop
endfacet
facet normal 0 0 -1
  outer loop
    vertex 0.0353249 0.177356 0
    vertex 0.179608 0.154211 0
    vertex 0.0612566 0.101863 0
  endloop
endfacet
facet normal 0 0 -1
  outer loop
    vertex 0.170972 0.0656083 0
    vertex 0.0612566 0.101863 0
    vertex 0.179608 0.154211 0
  endloop
endfacet
facet normal -0 -0 -1
  outer loop
    vertex 0.35 0 0
    vertex -0.35 0 0
    vertex -0.000536643 0.0372213 -0
  endloop
endfacet
facet normal 0 0 -1
  outer loop
    vertex 0.35 0 0
    vertex -0.000536643 0.0372213 -0
    vertex 0.170972 0.0656083 0
  endloop
endfacet
facet normal 0 0 -1
  outer loop
    vertex 0.35 0 0
    vertex 0.170972 0.0656083 0
    vertex 0.255995 0.0884397 0
  endloop
endfacet
facet normal 0 0 -1
  outer loop
    vertex -0.35 0 0
    vertex -0.16138 0.0617568 -0
    vertex -0.000536643 0.0372213 -0
  endloop
endfacet
facet normal 0 0 -1
  outer loop
    vertex -0.000536643 0.0372213 -0
    vertex 0.0612566 0.101863 0
    vertex 0.170972 0.0656083 0
  endloop
endfacet
facet normal 0 0 -1
  outer loop
    vertex -0.000536643 0.0372213 -0
    vertex -0.16138 0.0617568 -0
    vertex -0.069769 0.103983 -0
  endloop
endfacet
facet normal 0 1 0
  outer loop
    vertex 0.35 0 0
    vertex -0.35 0 0
    vertex 0 0 0.05
  endloop
endfacet
facet normal 0 1 0
  outer loop
    vertex 0.35 0 0.1
    vertex 0 0 0.05
    vertex -0.35 0 0.1
  endloop
endfacet
facet normal 0 1 -0
  outer loop
    vertex 0.35 0 0
    vertex 0 0 0.05
    vertex 0.35 0 0.1
  endloop
endfacet
facet normal 0 1 0
  outer loop
    vertex -0.35 0 0
    vertex -0.35 0 0.1
    vertex 0 0 0.05
  endloop
endfacet
endsolid Created by Gmsh
